<svg width="512.001" height="512.001" xmlns="http://www.w3.org/2000/svg">

 <g>
  <title>background</title>
  <rect fill="none" id="canvas_background" height="402" width="582" y="-1" x="-1"/>
 </g>
 <g>
  <title>Layer 1</title>
  <path id="svg_1" fill="#FF5D5D" d="m420.298,414.123l16.601,-16.601c14.801,-14.801 14.801,-38.798 0,-53.6l-69.381,-69.381c-14.801,-14.801 -38.798,-14.801 -53.6,0l-15.822,15.822c-11.431,11.431 -29.964,11.431 -41.395,0l-89.079,-89.079c-11.431,-11.431 -11.431,-29.964 0,-41.395l15.822,-15.822c14.801,-14.801 14.801,-38.798 0,-53.6l-69.381,-69.381c-14.801,-14.801 -38.798,-14.801 -53.6,0l-16.599,16.602c-45.151,45.151 -45.151,118.357 0,163.508l212.926,212.927c45.152,45.151 118.357,45.151 163.508,0z"/>
  <g id="svg_2">
   <path id="svg_3" fill="#FFFFFF" d="m167.394,160.131c0.078,-0.079 0.15,-0.162 0.229,-0.241l15.822,-15.822c14.801,-14.801 14.801,-38.798 0,-53.6l-69.381,-69.381c-14.801,-14.801 -38.798,-14.801 -53.6,0l-16.056,16.057l122.986,122.987z"/>
   <path id="svg_4" fill="#FFFFFF" d="m367.518,274.542c-14.801,-14.801 -38.799,-14.801 -53.6,0l-15.822,15.822c-0.079,0.079 -0.161,0.151 -0.241,0.229l122.986,122.986l16.057,-16.057c14.801,-14.801 14.801,-38.799 0,-53.6l-69.38,-69.38z"/>
  </g>
  <path id="svg_6" d="m161.83,319.166c1.86,-1.87 2.93,-4.439 2.93,-7.07c0,-2.64 -1.07,-5.21 -2.93,-7.079c-1.86,-1.86 -4.44,-2.921 -7.07,-2.921s-5.21,1.061 -7.07,2.921c-1.86,1.869 -2.93,4.439 -2.93,7.079c0,2.631 1.07,5.2 2.93,7.07c1.86,1.86 4.44,2.93 7.07,2.93s5.21,-1.069 7.07,-2.93z"/>
  <path id="svg_7" d="m470.731,429.449c-13.52,0 -26.23,-5.265 -35.79,-14.824l-0.501,-0.501l9.529,-9.53c9.047,-9.047 14.03,-21.076 14.03,-33.871c0,-12.794 -4.983,-24.823 -14.03,-33.871l-69.38,-69.38c-9.047,-9.047 -21.076,-14.03 -33.871,-14.03s-24.824,4.983 -33.871,14.03l-15.823,15.822c-3.64,3.64 -8.479,5.645 -13.626,5.645s-9.986,-2.005 -13.626,-5.646l-89.08,-89.079c-7.514,-7.514 -7.514,-19.738 0,-27.252l15.822,-15.822c9.047,-9.047 14.03,-21.076 14.03,-33.871s-4.983,-24.824 -14.03,-33.871l-69.381,-69.381c-18.677,-18.676 -49.065,-18.675 -67.742,0l-16.599,16.6c-23.726,23.727 -36.792,55.272 -36.792,88.826s13.066,65.099 36.792,88.825l83.796,83.797c3.906,3.904 10.237,3.905 14.143,0c3.905,-3.905 3.905,-10.237 0,-14.143l-83.797,-83.797c-19.948,-19.948 -30.934,-46.47 -30.934,-74.682c0,-25.108 8.708,-48.874 24.686,-67.862l73.562,73.562c1.953,1.952 4.512,2.929 7.071,2.929s5.119,-0.977 7.071,-2.929c3.905,-3.905 3.905,-10.237 0,-14.143l-73.848,-73.848l8.993,-8.994c10.879,-10.878 28.58,-10.878 39.458,0l69.381,69.381c5.27,5.27 8.172,12.275 8.172,19.729c0,7.452 -2.902,14.459 -8.172,19.729l-15.822,15.822c-7.417,7.417 -11.502,17.279 -11.502,27.769s4.085,20.352 11.502,27.769l89.08,89.078c7.417,7.418 17.279,11.504 27.769,11.504c6.946,0 13.611,-1.802 19.478,-5.165l73.403,73.403c1.953,1.952 4.512,2.929 7.071,2.929c2.559,0 5.119,-0.977 7.071,-2.929c3.905,-3.905 3.905,-10.237 0,-14.143l-72.426,-72.427l8.994,-8.993c5.27,-5.271 12.276,-8.173 19.729,-8.173s14.459,2.902 19.729,8.173l69.38,69.38c5.27,5.27 8.172,12.276 8.172,19.729s-2.902,14.459 -8.172,19.729l-16.596,16.597c-0.002,0.002 -0.003,0.003 -0.005,0.005c-0.001,0.001 -0.002,0.003 -0.004,0.004c-41.182,41.176 -108.184,41.174 -149.362,-0.004l-72.963,-72.964c-3.905,-3.904 -10.237,-3.904 -14.142,0c-3.905,3.905 -3.906,10.237 0,14.143l72.963,72.964c24.49,24.489 56.658,36.733 88.826,36.733c29.042,0 58.081,-9.983 81.473,-29.944l0.783,0.783c13.336,13.337 31.069,20.682 49.931,20.682c11.728,0 21.269,9.541 21.269,21.27c0,11.728 -9.542,21.269 -21.269,21.269l-358.734,0c-5.523,0 -10,4.478 -10,10s4.477,10 10,10l358.731,0c22.756,0 41.269,-18.513 41.269,-41.269s-18.513,-41.272 -41.269,-41.272z"/>
  <path id="svg_8" d="m64,491.987c-2.63,0 -5.21,1.069 -7.07,2.93c-1.86,1.86 -2.93,4.44 -2.93,7.07s1.07,5.21 2.93,7.069c1.86,1.86 4.44,2.931 7.07,2.931c2.63,0 5.21,-1.07 7.07,-2.931c1.86,-1.859 2.93,-4.439 2.93,-7.069s-1.07,-5.21 -2.93,-7.07s-4.44,-2.93 -7.07,-2.93z"/>
  <g id="svg_10"/>
  <g id="svg_11"/>
  <g id="svg_12"/>
  <g id="svg_13"/>
  <g id="svg_14"/>
  <g id="svg_15"/>
  <g id="svg_16"/>
  <g id="svg_17"/>
  <g id="svg_18"/>
  <g id="svg_19"/>
  <g id="svg_20"/>
  <g id="svg_21"/>
  <g id="svg_22"/>
  <g id="svg_23"/>
  <g id="svg_24"/>
 </g>
</svg>